<svg width="78" height="79" viewBox="0 0 78 79" fill="none" xmlns="http://www.w3.org/2000/svg">
<path d="M17.875 5.5C15.8305 5.5 14.0153 6.80828 13.3688 8.74791C13.3688 8.74791 13.3688 8.74792 13.3688 8.74792L11.2003 15.2531C8.65792 15.345 6.625 17.4351 6.625 20C6.625 22.6233 8.75166 24.75 11.375 24.75H13.5763L18.0236 69.2226C18.2664 71.6508 20.3097 73.5 22.75 73.5H55.25C57.6905 73.5 59.7336 71.6507 59.9763 69.2226L64.4237 24.75H66.625C69.2484 24.75 71.375 22.6233 71.375 20C71.375 17.4352 69.3422 15.3451 66.7998 15.2532L64.6313 8.74795C63.9848 6.80821 62.1693 5.5 60.125 5.5H17.875ZM27.0487 64L23.1237 24.75H54.8763L50.9513 64H27.0487ZM56.7847 15.25H21.2153L21.2986 15H56.7013L56.7847 15.25Z" fill="#EFE4D5" stroke="#EFE4D5" stroke-width="3"/>
</svg>
